<svg width="24" height="24" viewBox="0 0 24 24" xmlns="http://www.w3.org/2000/svg">
<path fill-rule="evenodd" clip-rule="evenodd" d="M19 3.98999C19 3.45956 18.7893 2.95085 18.4142 2.57578C18.0391 2.2007 17.5304 1.98999 17 1.98999H7C6.46957 1.98999 5.96086 2.2007 5.58579 2.57578C5.21071 2.95085 5 3.45956 5 3.98999C4.46957 3.98999 3.96086 4.2007 3.58579 4.57578C3.21071 4.95085 3 5.45956 3 5.98999V16.99C3 17.5204 3.21071 18.0291 3.58579 18.4042C3.96086 18.7793 4.46957 18.99 5 18.99V20.9C5 21.1891 5.11484 21.4663 5.31925 21.6707C5.52367 21.8752 5.80091 21.99 6.09 21.99H6.9C7.04398 21.9913 7.1868 21.9641 7.3202 21.9099C7.4536 21.8557 7.57494 21.7756 7.67722 21.6743C7.7795 21.5729 7.86068 21.4523 7.91608 21.3194C7.97148 21.1865 8.00001 21.044 8 20.9V18.99H16V20.9C16 21.1891 16.1148 21.4663 16.3193 21.6707C16.5237 21.8752 16.8009 21.99 17.09 21.99H17.9C18.044 21.9913 18.1868 21.9641 18.3202 21.9099C18.4536 21.8557 18.5749 21.7756 18.6772 21.6743C18.7795 21.5729 18.8607 21.4523 18.9161 21.3194C18.9715 21.1865 19 21.044 19 20.9V18.99C19.5304 18.99 20.0391 18.7793 20.4142 18.4042C20.7893 18.0291 21 17.5204 21 16.99V5.98999C21 5.45956 20.7893 4.95085 20.4142 4.57578C20.0391 4.2007 19.5304 3.98999 19 3.98999ZM7 3.98999H17V5.98999H7V3.98999ZM5 7.98999H19V12.99H5V7.98999ZM8 16.99H5V14.99H8V16.99ZM19 16.99H16V14.99H19V16.99Z" />
</svg>
