<svg width="18" height="18" viewBox="0 0 18 18" xmlns="http://www.w3.org/2000/svg">
  <path d="M8.0625 12.7625H9.9375V9.9375H12.7625V8.0625H9.9375V5.23749H8.0625V8.0625H5.23749V9.9375H8.0625V12.7625ZM3.49999 15.75C3.16249 15.75 2.86978 15.626 2.62187 15.3781C2.37396 15.1302 2.25 14.8375 2.25 14.5V3.49999C2.25 3.16249 2.37396 2.86978 2.62187 2.62187C2.86978 2.37396 3.16249 2.25 3.49999 2.25H14.5C14.8375 2.25 15.1302 2.37396 15.3781 2.62187C15.626 2.86978 15.75 3.16249 15.75 3.49999V14.5C15.75 14.8375 15.626 15.1302 15.3781 15.3781C15.1302 15.626 14.8375 15.75 14.5 15.75H3.49999Z" />
</svg>
