<svg width="24" height="24" viewBox="0 0 24 24" xmlns="http://www.w3.org/2000/svg">
<path fill-rule="evenodd" clip-rule="evenodd" d="M4 6C4 2.5 8 2 12 2C16.42 2 20 2.5 20 6V15.5C20 17.43 18.43 19 16.5 19L18 20V21H6V20L7.5 19C5.57 19 4 17.43 4 15.5V6ZM11 10V6H6V10H11ZM13 6H18V10H13V6ZM6 15.5C6 16.33 6.67 17 7.5 17H16.5C17.33 17 18 16.33 18 15.5V12H6V15.5ZM8.5 16C9.32843 16 10 15.3284 10 14.5C10 13.6716 9.32843 13 8.5 13C7.67157 13 7 13.6716 7 14.5C7 15.3284 7.67157 16 8.5 16ZM17 14.5C17 15.3284 16.3284 16 15.5 16C14.6716 16 14 15.3284 14 14.5C14 13.6716 14.6716 13 15.5 13C16.3284 13 17 13.6716 17 14.5Z" />
</svg>
