<svg width="24" height="24" viewBox="0 0 24 24" fill="none" xmlns="http://www.w3.org/2000/svg">
    <path
        d="M12.0015 11.8333C12.506 11.8333 12.9375 11.6537 13.2958 11.2944C13.6542 10.935 13.8333 10.5031 13.8333 9.99853C13.8333 9.49396 13.6537 9.06251 13.2943 8.70418C12.935 8.34584 12.5031 8.16668 11.9985 8.16668C11.494 8.16668 11.0625 8.34633 10.7042 8.70565C10.3458 9.06497 10.1667 9.49691 10.1667 10.0015C10.1667 10.506 10.3463 10.9375 10.7057 11.2958C11.065 11.6542 11.4969 11.8333 12.0015 11.8333ZM12 22C9.31667 19.7167 7.3125 17.5958 5.9875 15.6375C4.6625 13.6792 4 11.8667 4 10.2C4 7.7 4.80417 5.70833 6.4125 4.225C8.02083 2.74167 9.88333 2 12 2C14.1167 2 15.9792 2.74167 17.5875 4.225C19.1958 5.70833 20 7.7 20 10.2C20 11.8667 19.3375 13.6792 18.0125 15.6375C16.6875 17.5958 14.6833 19.7167 12 22Z"
        fill="#1A73E8" />
</svg>