<svg width="24" height="24" viewBox="0 0 24 24" fill="none" xmlns="http://www.w3.org/2000/svg">
    <path
        d="M15.55 16.7833L16.7667 15.5667L12.8833 11.6667V6.78333H11.2167V12.3333L15.55 16.7833ZM12 22C10.6278 22 9.33334 21.7375 8.11668 21.2125C6.90001 20.6875 5.83889 19.9722 4.93333 19.0667C4.02778 18.1611 3.3125 17.1 2.7875 15.8833C2.2625 14.6667 2 13.3722 2 12C2 10.6278 2.2625 9.33334 2.7875 8.11668C3.3125 6.90001 4.02778 5.83889 4.93333 4.93333C5.83889 4.02778 6.90001 3.3125 8.11668 2.7875C9.33334 2.2625 10.6278 2 12 2C13.3722 2 14.6667 2.2625 15.8833 2.7875C17.1 3.3125 18.1611 4.02778 19.0667 4.93333C19.9722 5.83889 20.6875 6.90001 21.2125 8.11668C21.7375 9.33334 22 10.6278 22 12C22 13.3722 21.7375 14.6667 21.2125 15.8833C20.6875 17.1 19.9722 18.1611 19.0667 19.0667C18.1611 19.9722 17.1 20.6875 15.8833 21.2125C14.6667 21.7375 13.3722 22 12 22Z"
        fill="#1A73E8" />
</svg>