<svg width="24" height="24" viewBox="0 0 24 24" fill="none" xmlns="http://www.w3.org/2000/svg">
    <path
        d="M19.9 21C17.9167 21 15.9167 20.5375 13.9 19.6125C11.8833 18.6875 10.025 17.375 8.325 15.675C6.625 13.975 5.3125 12.1167 4.3875 10.1C3.4625 8.08333 3 6.08333 3 4.1C3 3.78888 3.10556 3.52777 3.31668 3.31667C3.52778 3.10556 3.78888 3 4.1 3H7.78333C8.01666 3 8.21943 3.08194 8.39165 3.24583C8.56388 3.40973 8.67778 3.61112 8.73333 3.85L9.4 7.11665C9.43333 7.3611 9.42778 7.57777 9.38333 7.76665C9.33888 7.95555 9.24998 8.11667 9.11665 8.25L6.64165 10.75C7.04165 11.4445 7.47915 12.0986 7.95415 12.7125C8.42915 13.3264 8.95277 13.9111 9.525 14.4667C10.1083 15.0611 10.7222 15.607 11.3667 16.1042C12.0111 16.6014 12.6889 17.0444 13.4 17.4333L15.7667 15.0167C15.9278 14.8445 16.1208 14.7236 16.3458 14.6542C16.5708 14.5847 16.7945 14.5667 17.0167 14.6L20.15 15.2667C20.3945 15.3333 20.5972 15.4625 20.7583 15.6542C20.9194 15.8458 21 16.0611 21 16.3V19.9C21 20.2111 20.8944 20.4722 20.6833 20.6833C20.4722 20.8944 20.2111 21 19.9 21Z"
        fill="#1A73E8" />
</svg>