<svg width="24" height="24" viewBox="0 0 24 24" fill="none" xmlns="http://www.w3.org/2000/svg">
    <path
        d="M12 22C10.6167 22 9.31667 21.7375 8.1 21.2125C6.88333 20.6875 5.825 19.975 4.925 19.075C4.025 18.175 3.3125 17.1167 2.7875 15.9C2.2625 14.6833 2 13.3833 2 12C2 10.6167 2.2625 9.31667 2.7875 8.1C3.3125 6.88333 4.025 5.825 4.925 4.925C5.825 4.025 6.88333 3.3125 8.1 2.7875C9.31667 2.2625 10.6167 2 12 2C13.3833 2 14.6833 2.2625 15.9 2.7875C17.1167 3.3125 18.175 4.025 19.075 4.925C19.975 5.825 20.6875 6.88333 21.2125 8.1C21.7375 9.31667 22 10.6167 22 12C22 13.3833 21.7375 14.6833 21.2125 15.9C20.6875 17.1167 19.975 18.175 19.075 19.075C18.175 19.975 17.1167 20.6875 15.9 21.2125C14.6833 21.7375 13.3833 22 12 22ZM10.95 20.3V18.2834C10.3778 18.2834 9.89306 18.0736 9.49583 17.6542C9.09861 17.2347 8.9 16.7389 8.9 16.1667V15.1L3.88332 10.0833C3.81111 10.4056 3.75694 10.725 3.72082 11.0417C3.68471 11.3583 3.66665 11.6778 3.66665 12C3.66665 14.1167 4.35693 15.9667 5.7375 17.55C7.11805 19.1333 8.85555 20.05 10.95 20.3ZM18.15 17.65C18.5056 17.2611 18.8195 16.8458 19.0917 16.4042C19.3639 15.9625 19.5931 15.5014 19.7792 15.0208C19.9653 14.5403 20.1042 14.0472 20.1959 13.5417C20.2875 13.0361 20.3334 12.5222 20.3334 12C20.3334 10.2778 19.8597 8.71112 18.9125 7.3C17.9653 5.88888 16.7 4.8611 15.1167 4.21665V4.65C15.1167 5.22222 14.9181 5.71805 14.5208 6.1375C14.1236 6.55693 13.6389 6.76665 13.0667 6.76665H10.95V8.88333C10.95 9.16666 10.8431 9.40138 10.6292 9.5875C10.4153 9.77362 10.1667 9.86668 9.88333 9.86668H7.83333V12H14.1333C14.4167 12 14.6514 12.1042 14.8375 12.3125C15.0236 12.5208 15.1167 12.7667 15.1167 13.05V16.1667H16.1667C16.6333 16.1667 17.0472 16.3042 17.4084 16.5792C17.7695 16.8542 18.0167 17.2111 18.15 17.65Z"
        fill="#1A73E8" />
</svg>