<svg fill="none" xmlns="http://www.w3.org/2000/svg" viewBox="0 0 193 24">
  <path d="M10.902.627A8.268 8.268 0 0 0 8.409.243 8.236 8.236 0 0 0 2.087 3.19l3.9 3.28L10.901.628Z" fill="#1967D2"/>
  <path d="M2.087 3.19A8.224 8.224 0 0 0 .153 8.5c0 1.552.31 2.811.816 3.938l5.017-5.966L2.087 3.19Z" fill="#EA4335"/>
  <path d="M8.409 5.34a3.156 3.156 0 0 1 2.411 5.195s2.496-2.968 4.916-5.842A8.268 8.268 0 0 0 10.905.627L5.986 6.472A3.15 3.15 0 0 1 8.41 5.339Z" fill="#1A73E8"/>
  <path d="M8.409 11.656a3.157 3.157 0 0 1-2.42-5.184l-5.02 5.963c.858 1.903 2.284 3.428 3.752 5.35l6.099-7.25a3.148 3.148 0 0 1-2.411 1.12Z" fill="#FBBC04"/>
  <path d="M10.699 19.768c2.755-4.306 5.966-6.263 5.966-11.269a8.206 8.206 0 0 0-.93-3.803L4.722 17.788c.466.613.938 1.263 1.398 1.98 1.674 2.586 1.211 4.14 2.29 4.14 1.081 0 .615-1.554 2.29-4.14Z" fill="#34A853"/>
  <path d="M86.629 19.378h-1.612V6.83h1.612l4.365 7.64h.07l4.366-7.64h1.612v12.548H95.43V11.93l.07-2.104h-.07l-3.928 6.89h-.946l-3.927-6.89h-.07l.07 2.104v7.448ZM102.503 10.51c1.191 0 2.131.319 2.82.954.689.638 1.037 1.51 1.037 2.62v5.294h-1.542v-1.191h-.071c-.666.982-1.553 1.47-2.662 1.47-.946 0-1.74-.279-2.378-.84a2.68 2.68 0 0 1-.954-2.104c0-.887.336-1.596 1.008-2.12.672-.526 1.567-.788 2.691-.788.957 0 1.748.175 2.366.525v-.367c0-.562-.223-1.036-.666-1.429a2.277 2.277 0 0 0-1.559-.587c-.901 0-1.612.378-2.137 1.14l-1.42-.892c.779-1.124 1.936-1.686 3.467-1.686Zm-2.087 6.24c0 .42.178.77.534 1.05.355.28.773.42 1.253.42.678 0 1.282-.25 1.816-.753.531-.503.796-1.093.796-1.77-.503-.399-1.203-.596-2.103-.596-.656 0-1.2.158-1.641.474-.435.316-.655.709-.655 1.175ZM112.608 19.66c-.63 0-1.206-.135-1.728-.403-.519-.268-.92-.624-1.2-1.07h-.07l.07 1.191v3.787h-1.612V10.792h1.542v1.191h.07c.28-.443.681-.799 1.2-1.07a3.714 3.714 0 0 1 1.728-.404c1.132 0 2.092.444 2.874 1.333.808.898 1.212 1.98 1.212 3.242 0 1.273-.404 2.355-1.212 3.241-.782.892-1.739 1.336-2.874 1.336Zm-.262-1.473c.77 0 1.42-.291 1.945-.876.525-.573.788-1.315.788-2.225 0-.9-.263-1.643-.788-2.225-.528-.584-1.175-.878-1.945-.878-.783 0-1.438.294-1.963.878-.514.585-.771 1.328-.771 2.225 0 .912.257 1.658.771 2.242.525.573 1.18.859 1.963.859ZM124.557 16.995c0 .748-.327 1.38-.982 1.892-.655.514-1.48.77-2.471.77-.864 0-1.623-.225-2.278-.674a3.709 3.709 0 0 1-1.404-1.779l1.438-.613c.211.514.516.915.92 1.2.404.286.844.43 1.324.43.514 0 .943-.11 1.288-.334.344-.223.519-.485.519-.787 0-.55-.42-.952-1.262-1.209l-1.471-.367c-1.671-.42-2.507-1.228-2.507-2.42 0-.782.319-1.411.954-1.883.635-.474 1.451-.712 2.445-.712.76 0 1.446.181 2.062.543.612.361 1.044.847 1.287 1.454l-1.437.595a1.803 1.803 0 0 0-.799-.85 2.51 2.51 0 0 0-1.237-.307c-.421 0-.799.104-1.132.316-.333.21-.5.466-.5.77 0 .492.463.842 1.384 1.051l1.298.334c1.709.426 2.561 1.284 2.561 2.58ZM131.709 14.296v5.082h-1.612V6.83h4.278c1.087 0 2.01.362 2.77 1.087.771.726 1.157 1.607 1.157 2.646 0 1.064-.384 1.954-1.157 2.665-.749.715-1.672 1.07-2.77 1.07h-2.666v-.002Zm0-5.924v4.382h2.7c.643 0 1.174-.214 1.595-.65.432-.431.649-.945.649-1.541 0-.584-.217-1.093-.649-1.525-.421-.443-.952-.666-1.595-.666h-2.7ZM141.117 6.83h-1.612v12.55h1.612V6.83ZM146.231 10.51c1.191 0 2.131.319 2.82.954.689.638 1.037 1.51 1.037 2.62v5.294h-1.542v-1.191h-.071c-.666.982-1.553 1.47-2.662 1.47-.946 0-1.74-.279-2.378-.84a2.68 2.68 0 0 1-.954-2.104c0-.887.336-1.596 1.008-2.12.672-.526 1.567-.788 2.691-.788.957 0 1.748.175 2.366.525v-.367c0-.562-.223-1.036-.666-1.429a2.277 2.277 0 0 0-1.559-.587c-.901 0-1.612.378-2.137 1.14l-1.421-.892c.78-1.124 1.937-1.686 3.468-1.686Zm-2.087 6.24c0 .42.178.77.534 1.05.355.28.773.42 1.253.42.678 0 1.282-.25 1.816-.753.531-.503.796-1.093.796-1.77-.502-.399-1.203-.596-2.103-.596-.656 0-1.2.158-1.641.474-.435.316-.655.709-.655 1.175ZM155.043 19.52c-.689 0-1.268-.215-1.734-.65-.468-.432-.708-1.034-.72-1.804v-4.803h-1.507v-1.471h1.507V8.163h1.613v2.629h3.856V9.547c0-.853.272-1.542.814-2.07.542-.525 1.242-.788 2.095-.788.584 0 1.064.099 1.437.3l-.438 1.42a2.078 2.078 0 0 0-.946-.21c-.398 0-.722.14-.974.413-.251.274-.375.638-.375 1.096v1.087h2.244v1.47h-2.244v7.116h-1.613v-7.115h-3.856v4.328c0 .503.101.864.307 1.087a.952.952 0 0 0 .729.333c.268 0 .525-.053.771-.158l.508 1.437c-.432.15-.923.226-1.474.226ZM162.613 15.086c0-1.318.415-2.414 1.245-3.278.841-.864 1.9-1.296 3.174-1.296 1.273 0 2.323.432 3.154 1.296.841.864 1.262 1.957 1.262 3.278 0 1.333-.421 2.426-1.262 3.278-.831.864-1.881 1.296-3.154 1.296-1.274 0-2.333-.432-3.174-1.296-.833-.866-1.245-1.96-1.245-3.278Zm1.609 0c0 .924.271 1.672.808 2.242.536.573 1.203.859 1.999.859.793 0 1.46-.286 1.999-.859.536-.573.807-1.318.807-2.242 0-.912-.268-1.654-.807-2.225-.551-.584-1.217-.875-1.999-.875s-1.449.29-1.999.875c-.537.57-.808 1.313-.808 2.225ZM174.429 19.378h-1.612v-8.586h1.542v1.403h.07c.164-.454.5-.844 1.008-1.166.508-.322 1.008-.483 1.499-.483.466 0 .864.07 1.192.21l-.491 1.56c-.198-.081-.514-.12-.946-.12-.607 0-1.135.245-1.587.736a2.455 2.455 0 0 0-.675 1.717v4.73ZM180.709 19.378h-1.612v-8.586h1.541v1.191h.071c.246-.42.624-.77 1.129-1.05.509-.28 1.014-.42 1.517-.42.629 0 1.185.146 1.663.437.48.29.83.695 1.05 1.209.714-1.099 1.7-1.65 2.962-1.65.994 0 1.759.306 2.295.912.54.608.808 1.472.808 2.595v5.365h-1.612v-5.119c0-.808-.147-1.386-.438-1.745-.294-.356-.782-.534-1.474-.534-.618 0-1.141.263-1.561.788-.421.525-.63 1.146-.63 1.858v4.75h-1.612v-5.117c0-.808-.147-1.386-.438-1.745-.293-.356-.782-.534-1.474-.534-.618 0-1.14.263-1.561.788-.421.525-.63 1.146-.63 1.858v4.75h.006ZM30.67 19.655c-3.909 0-7.193-3.185-7.193-7.096 0-3.91 3.284-7.095 7.192-7.095 2.163 0 3.702.847 4.86 1.954l-1.367 1.366c-.83-.78-1.954-1.383-3.493-1.383-2.852 0-5.085 2.3-5.085 5.155 0 2.855 2.23 5.156 5.085 5.156 1.85 0 2.905-.742 3.58-1.417.554-.554.915-1.35 1.056-2.44h-4.684v-1.94h6.57c.071.348.102.763.102 1.212 0 1.454-.398 3.252-1.677 4.534-1.245 1.302-2.835 1.994-4.947 1.994ZM47.133 15.089c0 2.629-2.055 4.568-4.577 4.568-2.521 0-4.576-1.936-4.576-4.568 0-2.649 2.055-4.569 4.576-4.569 2.522 0 4.577 1.92 4.577 4.569Zm-2.004 0c0-1.643-1.192-2.77-2.573-2.77-1.38 0-2.572 1.124-2.572 2.77 0 1.626 1.192 2.77 2.572 2.77 1.381-.003 2.573-1.144 2.573-2.77ZM57.095 15.089c0 2.629-2.056 4.568-4.577 4.568-2.522 0-4.577-1.936-4.577-4.568 0-2.649 2.055-4.569 4.577-4.569 2.521 0 4.577 1.92 4.577 4.569Zm-2.005 0c0-1.643-1.191-2.77-2.572-2.77-1.38 0-2.572 1.124-2.572 2.77 0 1.626 1.191 2.77 2.572 2.77 1.38-.003 2.572-1.144 2.572-2.77ZM66.624 10.797V19c0 3.374-1.988 4.76-4.34 4.76-2.213 0-3.543-1.488-4.046-2.7l1.748-.728c.31.746 1.07 1.627 2.298 1.627 1.505 0 2.437-.935 2.437-2.683v-.658h-.068c-.449.554-1.315 1.04-2.405 1.04-2.282 0-4.374-1.991-4.374-4.552 0-2.578 2.092-4.585 4.374-4.585 1.09 0 1.954.485 2.405 1.022h.068V10.8h1.903v-.003Zm-1.765 4.309c0-1.61-1.072-2.787-2.436-2.787-1.384 0-2.541 1.177-2.541 2.787 0 1.592 1.157 2.75 2.54 2.75 1.367 0 2.437-1.158 2.437-2.75ZM70.072 5.952h-2.005v13.429h2.005V5.952ZM77.848 16.594l1.555 1.039c-.502.743-1.71 2.024-3.803 2.024-2.592 0-4.532-2.007-4.532-4.568 0-2.716 1.954-4.569 4.306-4.569 2.37 0 3.527 1.887 3.908 2.906l.206.52-6.104 2.524c.466.917 1.191 1.383 2.213 1.383 1.022.003 1.731-.5 2.25-1.26Zm-4.79-1.643 4.081-1.697c-.223-.57-.898-.969-1.694-.969-1.022 0-2.44.9-2.386 2.666Z" fill="#757575"/>
</svg>